<svg xmlns="http://www.w3.org/2000/svg" id="uuid-6818ffad-da83-4d3b-874d-4ce9b121b886" width="463.22mm" height="137.56mm" viewBox="0 0 1313.06 389.94"><defs><style>.uuid-16ab3b2c-12cc-4a3f-8ecf-1144d3b50234{fill:#fff;}.uuid-5650c587-72a3-4b43-9f7e-50145147f526{fill:#a6ce88;}.uuid-c52bc78b-bc79-467a-9492-fb72c5b1bf1d{fill:#161731;}.uuid-ae3370eb-cca6-4b3e-ab3a-13c560e889ac{fill:#1d1d1b;}.uuid-60c35fbb-a388-44f5-a408-6fc00b73b567{fill:#438dcc;}.uuid-a23fcf30-8e9f-4d44-bf18-6565c6840c93{fill:#1c3661;}</style></defs><g id="uuid-86df3080-dd69-425b-9394-45f30b19d4b5"><g><g><g><path class="uuid-c52bc78b-bc79-467a-9492-fb72c5b1bf1d" d="M478.18,343.25h10.45c6.78,0,11.73,2.45,11.73,9.43s-4.95,9.89-11.73,9.89h-6.12v14.13h-4.33v-33.45Zm9.84,15.86c5.2,0,8.06-2.14,8.06-6.43s-2.86-5.97-8.06-5.97h-5.51v12.39h5.51Zm3.11,.05l10.2,17.54h-4.84l-8.72-15.3,3.37-2.24Z"></path><path class="uuid-c52bc78b-bc79-467a-9492-fb72c5b1bf1d" d="M517.6,343.25h20.7v3.62h-16.42v10.45h13.87v3.62h-13.87v12.14h16.93v3.62h-21.21v-33.45Z"></path><path class="uuid-c52bc78b-bc79-467a-9492-fb72c5b1bf1d" d="M553.76,359.97c0-10.76,6.27-17.34,14.99-17.34,4.03,0,7.19,1.94,9.18,4.08l-2.45,2.7c-1.73-1.84-3.93-3.01-6.73-3.01-6.38,0-10.56,5.15-10.56,13.46s4.18,13.67,10.56,13.67c3.06,0,5.41-1.33,7.5-3.67l2.45,2.6c-2.6,3.06-5.92,4.84-10.35,4.84-8.26,0-14.58-6.43-14.58-17.34Z"></path><path class="uuid-c52bc78b-bc79-467a-9492-fb72c5b1bf1d" d="M602.26,364.77l-11.22-21.52h4.54l5,9.89c1.28,2.6,2.45,5.15,3.83,7.8h.2c1.33-2.65,2.65-5.2,3.93-7.8l4.84-9.89h4.39l-11.22,21.52v11.93h-4.28v-11.93Z"></path><path class="uuid-c52bc78b-bc79-467a-9492-fb72c5b1bf1d" d="M631.07,359.97c0-10.76,6.27-17.34,14.99-17.34,4.03,0,7.19,1.94,9.18,4.08l-2.45,2.7c-1.73-1.84-3.93-3.01-6.73-3.01-6.38,0-10.56,5.15-10.56,13.46s4.18,13.67,10.56,13.67c3.06,0,5.41-1.33,7.5-3.67l2.45,2.6c-2.6,3.06-5.92,4.84-10.35,4.84-8.26,0-14.58-6.43-14.58-17.34Z"></path><path class="uuid-c52bc78b-bc79-467a-9492-fb72c5b1bf1d" d="M673.25,343.25h4.23v29.83h16.52v3.62h-20.75v-33.45Z"></path><path class="uuid-c52bc78b-bc79-467a-9492-fb72c5b1bf1d" d="M709.92,373.08h8.31v-26.21h-8.31v-3.62h20.91v3.62h-8.31v26.21h8.31v3.62h-20.91v-3.62Z"></path><path class="uuid-c52bc78b-bc79-467a-9492-fb72c5b1bf1d" d="M747.91,343.25h4.69l10.71,21.01,3.21,6.93h.1c-.15-3.31-.56-7.09-.56-10.61v-17.34h4.08v33.45h-4.69l-10.71-21.01-3.21-6.94h-.1c.15,3.42,.56,6.99,.56,10.45v17.49h-4.08v-33.45Z"></path><path class="uuid-c52bc78b-bc79-467a-9492-fb72c5b1bf1d" d="M785.09,359.97c0-10.81,6.17-17.34,14.84-17.34,4.44,0,7.34,2.09,9.23,4.08l-2.45,2.7c-1.58-1.68-3.57-3.01-6.78-3.01-6.27,0-10.35,5.15-10.35,13.46s3.72,13.67,10.25,13.67c2.35,0,4.54-.71,5.76-1.94v-8.72h-6.63v-3.52h10.61v14.07c-2.09,2.14-5.66,3.88-10,3.88-8.41,0-14.48-6.43-14.48-17.34Z"></path><path class="uuid-c52bc78b-bc79-467a-9492-fb72c5b1bf1d" d="M872.86,346.87h-11.07v-3.62h26.42v3.62h-11.07v29.83h-4.28v-29.83Z"></path><path class="uuid-c52bc78b-bc79-467a-9492-fb72c5b1bf1d" d="M904.17,343.25h20.7v3.62h-16.42v10.45h13.87v3.62h-13.87v12.14h16.93v3.62h-21.21v-33.45Z"></path><path class="uuid-c52bc78b-bc79-467a-9492-fb72c5b1bf1d" d="M940.33,359.97c0-10.76,6.27-17.34,14.99-17.34,4.03,0,7.19,1.94,9.18,4.08l-2.45,2.7c-1.73-1.84-3.93-3.01-6.73-3.01-6.38,0-10.56,5.15-10.56,13.46s4.18,13.67,10.56,13.67c3.06,0,5.41-1.33,7.5-3.67l2.45,2.6c-2.6,3.06-5.92,4.84-10.35,4.84-8.26,0-14.58-6.43-14.58-17.34Z"></path><path class="uuid-c52bc78b-bc79-467a-9492-fb72c5b1bf1d" d="M979.7,343.25h4.33v13.97h13.87v-13.97h4.33v33.45h-4.33v-15.71h-13.87v15.71h-4.33v-33.45Z"></path><path class="uuid-c52bc78b-bc79-467a-9492-fb72c5b1bf1d" d="M1018.51,343.25h4.69l10.71,21.01,3.21,6.93h.1c-.15-3.31-.56-7.09-.56-10.61v-17.34h4.08v33.45h-4.69l-10.71-21.01-3.21-6.94h-.1c.15,3.42,.56,6.99,.56,10.45v17.49h-4.08v-33.45Z"></path><path class="uuid-c52bc78b-bc79-467a-9492-fb72c5b1bf1d" d="M1055.44,359.82c0-10.81,5.3-17.19,12.85-17.19s12.85,6.37,12.85,17.19-5.3,17.49-12.85,17.49-12.85-6.53-12.85-17.49Zm21.27,0c0-8.41-3.37-13.41-8.41-13.41s-8.41,5-8.41,13.41,3.37,13.72,8.41,13.72,8.41-5.15,8.41-13.72Z"></path><path class="uuid-c52bc78b-bc79-467a-9492-fb72c5b1bf1d" d="M1098.48,343.25h4.23v29.83h16.52v3.62h-20.75v-33.45Z"></path><path class="uuid-c52bc78b-bc79-467a-9492-fb72c5b1bf1d" d="M1132.75,359.82c0-10.81,5.3-17.19,12.85-17.19s12.85,6.37,12.85,17.19-5.3,17.49-12.85,17.49-12.85-6.53-12.85-17.49Zm21.27,0c0-8.41-3.37-13.41-8.41-13.41s-8.41,5-8.41,13.41,3.37,13.72,8.41,13.72,8.41-5.15,8.41-13.72Z"></path><path class="uuid-c52bc78b-bc79-467a-9492-fb72c5b1bf1d" d="M1171.67,359.97c0-10.81,6.17-17.34,14.84-17.34,4.44,0,7.34,2.09,9.23,4.08l-2.45,2.7c-1.58-1.68-3.57-3.01-6.78-3.01-6.27,0-10.35,5.15-10.35,13.46s3.72,13.67,10.25,13.67c2.35,0,4.54-.71,5.76-1.94v-8.72h-6.63v-3.52h10.61v14.07c-2.09,2.14-5.66,3.88-10,3.88-8.41,0-14.48-6.43-14.48-17.34Z"></path><path class="uuid-c52bc78b-bc79-467a-9492-fb72c5b1bf1d" d="M1212.46,373.08h8.31v-26.21h-8.31v-3.62h20.91v3.62h-8.31v26.21h8.31v3.62h-20.91v-3.62Z"></path><path class="uuid-c52bc78b-bc79-467a-9492-fb72c5b1bf1d" d="M1252.09,343.25h20.7v3.62h-16.42v10.45h13.87v3.62h-13.87v12.14h16.93v3.62h-21.21v-33.45Z"></path><path class="uuid-c52bc78b-bc79-467a-9492-fb72c5b1bf1d" d="M1288.35,372.36l2.55-2.96c2.55,2.5,6.02,4.13,9.79,4.13,4.59,0,7.24-2.19,7.24-5.25,0-3.57-2.6-4.59-5.97-6.02l-4.84-2.14c-3.31-1.33-7.19-3.67-7.19-8.62s4.59-8.87,10.96-8.87c4.18,0,7.85,1.68,10.3,4.13l-2.24,2.75c-2.19-1.94-4.74-3.11-8.21-3.11-3.88,0-6.48,1.84-6.48,4.84,0,3.21,3.11,4.39,5.97,5.51l4.69,2.09c4.13,1.63,7.39,3.98,7.39,8.92,0,5.3-4.49,9.54-11.83,9.54-4.9,0-9.13-1.94-12.14-4.95Z"></path></g><rect class="uuid-5650c587-72a3-4b43-9f7e-50145147f526" x="477.17" y="295.01" width="835.89" height="6.91"></rect><g><rect class="uuid-5650c587-72a3-4b43-9f7e-50145147f526" x="504.12" y="29.79" width="11.8" height="231.31"></rect><rect class="uuid-5650c587-72a3-4b43-9f7e-50145147f526" x="982.4" y="43.62" width="11.8" height="217.49"></rect><path class="uuid-c52bc78b-bc79-467a-9492-fb72c5b1bf1d" d="M526.67,232.56c24.95,0,46.21-8.78,63.77-26.35,17.57-17.67,26.35-38.93,26.35-63.78s-8.78-46.06-26.35-63.63c-17.57-17.57-38.83-26.35-63.77-26.35h-17.47v208.66h-32.03V23.91h49.51c32.81,0,60.77,11.55,83.87,34.66,23.2,23.2,34.8,51.15,34.8,83.87s-11.6,60.77-34.8,83.87c-23.11,23.2-51.06,34.8-83.87,34.8v-28.54Z"></path><path class="uuid-c52bc78b-bc79-467a-9492-fb72c5b1bf1d" d="M884.32,58.56c23.2,23.2,34.8,51.15,34.8,83.87s-11.6,60.77-34.8,83.87c-23.11,23.2-51.06,34.8-83.87,34.8s-60.62-11.6-83.72-34.8c-23.2-23.11-34.8-51.06-34.8-83.87s11.6-60.67,34.8-83.87c23.1-23.11,51.01-34.66,83.72-34.66s60.77,11.55,83.87,34.66Zm-83.87-6.12c-24.85,0-46.06,8.78-63.63,26.35-17.57,17.57-26.35,38.78-26.35,63.63s8.78,46.11,26.35,63.78c17.57,17.57,38.78,26.35,63.63,26.35s46.21-8.78,63.78-26.35c17.57-17.67,26.35-38.93,26.35-63.78s-8.78-46.06-26.35-63.63c-17.58-17.57-38.83-26.35-63.78-26.35Z"></path><path class="uuid-c52bc78b-bc79-467a-9492-fb72c5b1bf1d" d="M1043.36,23.91c19.8,0,36.74,6.99,50.81,20.96,13.98,14.08,20.97,31.01,20.97,50.82s-6.99,36.69-20.97,50.68c-14.07,14.07-31.01,21.11-50.81,21.11h-45.72v-28.54h45.72c11.94,0,22.13-4.22,30.58-12.67,8.44-8.44,12.67-18.64,12.67-30.58s-4.22-22.13-12.67-30.58c-8.44-8.44-18.64-12.67-30.58-12.67h-31.75c-7.38,0-13.25,2.67-17.62,8.01-4.18,5.05-6.26,11.46-6.26,19.22v181.43h-32.03V79.67c0-15.34,5.43-28.49,16.31-39.46,10.97-10.88,24.17-16.31,39.6-16.31h31.75Z"></path><path class="uuid-c52bc78b-bc79-467a-9492-fb72c5b1bf1d" d="M1286.7,52.73h-68.44c-10.39,0-19.27,3.69-26.64,11.07-7.38,7.38-11.07,16.26-11.07,26.65s3.69,19.22,11.07,26.5c7.37,7.37,16.26,11.07,26.64,11.07h28.39c18.35,0,34.03,6.5,47.03,19.51,12.91,13.01,19.37,28.68,19.37,47.03s-6.46,34.03-19.37,47.03c-13.01,13.01-28.69,19.51-47.03,19.51h-84.45v-28.98h84.45c10.39,0,19.22-3.64,26.5-10.92,7.37-7.37,11.07-16.26,11.07-26.65s-3.69-19.27-11.07-26.64c-7.28-7.38-16.12-11.07-26.5-11.07h-28.39c-18.35,0-34.02-6.46-47.03-19.37-13.01-13.01-19.51-28.69-19.51-47.03s6.5-34.12,19.51-47.03c13.01-13.01,28.68-19.51,47.03-19.51h68.44v28.83Z"></path></g></g><g><path class="uuid-60c35fbb-a388-44f5-a408-6fc00b73b567" d="M370.77,0H18.96C8.68,0,.26,8.42,.26,18.7V370.51c0,10.29,8.42,18.7,18.7,18.7H370.77c10.29,0,18.7-8.42,18.7-18.7V18.7c0-10.29-8.42-18.7-18.7-18.7Zm-112.96,21.67c15.22,0,27.56,12.34,27.56,27.56s-12.34,27.56-27.56,27.56-27.56-12.34-27.56-27.56,12.34-27.56,27.56-27.56Zm-121.58,0c15.22,0,27.56,12.34,27.56,27.56s-12.34,27.56-27.56,27.56-27.56-12.34-27.56-27.56,12.34-27.56,27.56-27.56Zm-90.83,0c9.07,0,16.42,7.35,16.42,16.42s-7.35,16.42-16.42,16.42-16.42-7.35-16.42-16.42,7.35-16.42,16.42-16.42Zm0,336.98c-9.07,0-16.42-7.35-16.42-16.42s7.35-16.42,16.42-16.42,16.42,7.35,16.42,16.42-7.35,16.42-16.42,16.42Zm11.14-79.69c-15.22,0-27.56-12.34-27.56-27.56s12.34-27.56,27.56-27.56,27.56,12.34,27.56,27.56-12.34,27.56-27.56,27.56Zm0-122.48c-15.22,0-27.56-12.34-27.56-27.56s12.34-27.56,27.56-27.56,27.56,12.34,27.56,27.56-12.34,27.56-27.56,27.56Zm79.69,202.17c-15.22,0-27.56-12.34-27.56-27.56s12.34-27.56,27.56-27.56,27.56,12.34,27.56,27.56-12.34,27.56-27.56,27.56Zm121.58,0c-15.22,0-27.56-12.34-27.56-27.56s12.34-27.56,27.56-27.56,27.56,12.34,27.56,27.56-12.34,27.56-27.56,27.56Zm-62.95-67.57c-53.28,0-96.47-43.19-96.47-96.47s43.19-96.47,96.47-96.47,96.47,43.19,96.47,96.47-43.19,96.47-96.47,96.47Zm153.78,67.57c-9.07,0-16.42-7.35-16.42-16.42s7.35-16.42,16.42-16.42,16.42,7.35,16.42,16.42-7.35,16.42-16.42,16.42Zm-11.14-79.69c-15.22,0-27.56-12.34-27.56-27.56s12.34-27.56,27.56-27.56,27.56,12.34,27.56,27.56-12.34,27.56-27.56,27.56Zm0-122.48c-15.22,0-27.56-12.34-27.56-27.56s12.34-27.56,27.56-27.56,27.56,12.34,27.56,27.56-12.34,27.56-27.56,27.56Zm11.14-101.98c-9.07,0-16.42-7.35-16.42-16.42s7.35-16.42,16.42-16.42,16.42,7.35,16.42,16.42-7.35,16.42-16.42,16.42Z"></path><rect class="uuid-16ab3b2c-12cc-4a3f-8ecf-1144d3b50234" x="192.69" y="291.8" width="3.84" height="98.13"></rect><rect class="uuid-16ab3b2c-12cc-4a3f-8ecf-1144d3b50234" x="192.69" y=".72" width="3.84" height="98.13"></rect><rect class="uuid-16ab3b2c-12cc-4a3f-8ecf-1144d3b50234" y="188.96" width="98.13" height="3.84"></rect><rect class="uuid-16ab3b2c-12cc-4a3f-8ecf-1144d3b50234" x="290.97" y="188.96" width="98.24" height="3.84"></rect><path class="uuid-ae3370eb-cca6-4b3e-ab3a-13c560e889ac" d="M194.87,293c-54.25,0-98.39-44.14-98.39-98.39s44.14-98.39,98.39-98.39,98.39,44.14,98.39,98.39-44.14,98.39-98.39,98.39Zm0-192.94c-52.14,0-94.55,42.42-94.55,94.55s42.42,94.55,94.55,94.55,94.55-42.42,94.55-94.55-42.42-94.55-94.55-94.55Z"></path><path class="uuid-5650c587-72a3-4b43-9f7e-50145147f526" d="M194.87,306.42c-61.65,0-111.81-50.16-111.81-111.81s50.16-111.81,111.81-111.81,111.81,50.16,111.81,111.81-50.16,111.81-111.81,111.81Zm0-187.44c-41.7,0-75.62,33.93-75.62,75.63s33.92,75.63,75.62,75.63,75.63-33.93,75.63-75.63-33.93-75.63-75.63-75.63Z"></path><path class="uuid-a23fcf30-8e9f-4d44-bf18-6565c6840c93" d="M194.87,312.32c-64.91,0-117.71-52.8-117.71-117.71s52.8-117.71,117.71-117.71,117.71,52.8,117.71,117.71-52.8,117.71-117.71,117.71Zm0-223.62c-58.4,0-105.91,47.51-105.91,105.91s47.51,105.91,105.91,105.91,105.91-47.51,105.91-105.91-47.51-105.91-105.91-105.91Z"></path></g></g></g></svg>