<svg width="256" height="58" viewBox="0 0 256 58" fill="none" xmlns="http://www.w3.org/2000/svg">
<path d="M35.5399 0.31548C35.627 0.31548 35.6976 0.244857 35.6976 0.15774C35.6976 0.0706224 35.627 0 35.5399 0C35.4528 0 35.3823 0.0706224 35.3823 0.15774C35.3823 0.244857 35.4528 0.31548 35.5399 0.31548Z" fill="#42C0BC"/>
<path d="M24.7115 5.73809C24.7985 5.73809 24.8691 5.66746 24.8691 5.58035C24.8691 5.49323 24.7985 5.42261 24.7115 5.42261C24.6244 5.42261 24.5538 5.49323 24.5538 5.58035C24.5538 5.66746 24.6244 5.73809 24.7115 5.73809Z" fill="#42C0BC"/>
<path d="M21.9725 8.47368C22.0595 8.47368 22.1301 8.40306 22.1301 8.31594C22.1301 8.22883 22.0595 8.1582 21.9725 8.1582C21.8854 8.1582 21.8148 8.22883 21.8148 8.31594C21.8148 8.40306 21.8854 8.47368 21.9725 8.47368Z" fill="#42C0BC"/>
<path d="M19.2974 11.1653C19.3844 11.1653 19.455 11.0947 19.455 11.0076C19.455 10.9205 19.3844 10.8499 19.2974 10.8499C19.2103 10.8499 19.1397 10.9205 19.1397 11.0076C19.1397 11.0947 19.2103 11.1653 19.2974 11.1653Z" fill="#42C0BC"/>
<path d="M16.558 13.8763C16.6451 13.8763 16.7157 13.8056 16.7157 13.7185C16.7157 13.6314 16.6451 13.5608 16.558 13.5608C16.471 13.5608 16.4004 13.6314 16.4004 13.7185C16.4004 13.8056 16.471 13.8763 16.558 13.8763Z" fill="#42C0BC"/>
<path d="M13.8829 16.5875C13.97 16.5875 14.0406 16.5168 14.0406 16.4297C14.0406 16.3426 13.97 16.272 13.8829 16.272C13.7959 16.272 13.7253 16.3426 13.7253 16.4297C13.7253 16.5168 13.7959 16.5875 13.8829 16.5875Z" fill="#42C0BC"/>
<path d="M11.1733 19.2989C11.2604 19.2989 11.331 19.2283 11.331 19.1411C11.331 19.054 11.2604 18.9834 11.1733 18.9834C11.0863 18.9834 11.0157 19.054 11.0157 19.1411C11.0157 19.2283 11.0863 19.2989 11.1733 19.2989Z" fill="#42C0BC"/>
<path d="M8.46374 22.0098C8.55081 22.0098 8.62139 21.9392 8.62139 21.8521C8.62139 21.765 8.55081 21.6943 8.46374 21.6943C8.37667 21.6943 8.30609 21.765 8.30609 21.8521C8.30609 21.9392 8.37667 22.0098 8.46374 22.0098Z" fill="#42C0BC"/>
<path d="M5.75921 24.721C5.84628 24.721 5.91686 24.6504 5.91686 24.5633C5.91686 24.4761 5.84628 24.4055 5.75921 24.4055C5.67214 24.4055 5.60156 24.4761 5.60156 24.5633C5.60156 24.6504 5.67214 24.721 5.75921 24.721Z" fill="#42C0BC"/>
<path d="M3.01513 27.4322C3.1022 27.4322 3.17278 27.3616 3.17278 27.2744C3.17278 27.1873 3.1022 27.1167 3.01513 27.1167C2.92806 27.1167 2.85748 27.1873 2.85748 27.2744C2.85748 27.3616 2.92806 27.4322 3.01513 27.4322Z" fill="#42C0BC"/>
<path d="M0.300654 30.1431C0.387721 30.1431 0.458302 30.0725 0.458302 29.9854C0.458302 29.8983 0.387721 29.8276 0.300654 29.8276C0.213587 29.8276 0.143005 29.8983 0.143005 29.9854C0.143005 30.0725 0.213587 30.1431 0.300654 30.1431Z" fill="#42C0BC"/>
<path d="M5.68542 41.1063C5.77249 41.1063 5.84307 41.0356 5.84307 40.9485C5.84307 40.8614 5.77249 40.7908 5.68542 40.7908C5.59835 40.7908 5.52777 40.8614 5.52777 40.9485C5.52777 41.0356 5.59835 41.1063 5.68542 41.1063Z" fill="#42C0BC"/>
<path d="M3.0003 49.1214C3.08737 49.1214 3.15795 49.0508 3.15795 48.9636C3.15795 48.8765 3.08737 48.8059 3.0003 48.8059C2.91323 48.8059 2.84265 48.8765 2.84265 48.9636C2.84265 49.0508 2.91323 49.1214 3.0003 49.1214Z" fill="#42C0BC"/>
<path d="M5.68542 57.2796C5.77249 57.2796 5.84307 57.209 5.84307 57.1218C5.84307 57.0347 5.77249 56.9641 5.68542 56.9641C5.59835 56.9641 5.52777 57.0347 5.52777 57.1218C5.52777 57.209 5.59835 57.2796 5.68542 57.2796Z" fill="#42C0BC"/>
<path d="M19.2234 34.1115C18.445 34.1115 17.8095 33.4756 17.8095 32.6968C17.8095 31.9179 18.445 31.2771 19.2234 31.2771C20.0018 31.2771 20.6373 31.913 20.6373 32.6918C20.6373 33.4707 20.0018 34.1115 19.2234 34.1115Z" fill="#42C0BC"/>
<path d="M23.3863 24.5534C23.3863 25.3322 22.7607 25.973 21.9774 25.9779C21.199 25.9779 20.5585 25.347 20.5536 24.5681C20.5536 23.7893 21.1793 23.1485 21.9626 23.1436C22.741 23.1436 23.3814 23.7745 23.3863 24.5534Z" fill="#42C0BC"/>
<path d="M20.6768 27.2794C20.6718 28.0631 20.0314 28.6941 19.253 28.6892C18.4697 28.6842 17.8391 28.0434 17.844 27.2646C17.8489 26.4808 18.4894 25.8498 19.2678 25.8548C20.0511 25.8597 20.6817 26.5005 20.6768 27.2794Z" fill="#42C0BC"/>
<path d="M24.687 25.8548C25.4703 25.8597 26.1009 26.5005 26.096 27.2794C26.091 28.0631 25.4506 28.6941 24.6722 28.6892C23.8889 28.6842 23.2583 28.0434 23.2632 27.2646C23.2681 26.4808 23.9086 25.8498 24.687 25.8548Z" fill="#42C0BC"/>
<path d="M12.5183 29.9903C12.5133 30.7741 11.8729 31.405 11.0945 31.4001C10.3112 31.3952 9.68059 30.7543 9.68551 29.9755C9.69044 29.1917 10.3309 28.5608 11.1093 28.5657C11.8926 28.5706 12.5232 29.2115 12.5183 29.9903Z" fill="#42C0BC"/>
<path d="M16.5187 28.5657C17.2971 28.5657 17.9327 29.2016 17.9327 29.9854C17.9327 30.7642 17.2971 31.405 16.5138 31.4001C15.7354 31.4001 15.0999 30.7642 15.0999 29.9804C15.0999 29.2016 15.7354 28.5608 16.5187 28.5657Z" fill="#42C0BC"/>
<path d="M21.9035 31.4003C21.1202 31.3806 20.4995 30.7299 20.5192 29.956C20.5389 29.1722 21.1892 28.5462 21.9627 28.5659C22.746 28.5856 23.3667 29.2363 23.347 30.0102C23.3273 30.794 22.677 31.42 21.9035 31.4003Z" fill="#42C0BC"/>
<path d="M17.9328 35.4227C17.9229 36.2065 17.2775 36.8375 16.4992 36.8227C15.7158 36.8128 15.0902 36.1671 15.1 35.3882C15.1099 34.6045 15.7553 33.9735 16.5336 33.9883C17.317 33.9982 17.9426 34.6439 17.9328 35.4227Z" fill="#42C0BC"/>
<path d="M15.2576 27.2743C15.2576 28.0581 14.6271 28.6841 13.8437 28.6792C13.0604 28.6792 12.4397 28.0433 12.4446 27.2595C12.4495 26.4807 13.0752 25.8645 13.8487 25.8645C14.632 25.8645 15.2576 26.4905 15.2576 27.2743Z" fill="#42C0BC"/>
<path d="M16.5482 25.9731C15.7649 25.9731 15.1392 25.3323 15.1491 24.5486C15.159 23.7697 15.7846 23.1535 16.563 23.1585C17.3463 23.1585 17.972 23.7993 17.9621 24.5831C17.9523 25.3619 17.3266 25.9781 16.5482 25.9731Z" fill="#42C0BC"/>
<path d="M23.3714 19.141C23.3714 19.9198 22.7457 20.5409 21.9673 20.5409C21.1889 20.5409 20.5682 19.9149 20.5682 19.136C20.5682 18.3572 21.1938 17.7361 21.9722 17.7361C22.7506 17.7361 23.3714 18.3621 23.3714 19.141Z" fill="#42C0BC"/>
<path d="M19.2528 23.2522C18.4793 23.2522 17.8586 22.6212 17.8586 21.8424C17.8586 21.0586 18.4941 20.4375 19.2774 20.4424C20.0509 20.4523 20.6667 21.0832 20.6618 21.8621C20.6568 22.636 20.0262 23.2571 19.2528 23.2522Z" fill="#42C0BC"/>
<path d="M24.677 17.8051C23.9134 17.8051 23.3025 17.1889 23.3025 16.4249C23.3025 15.6608 23.9183 15.0447 24.677 15.0496C25.4406 15.0496 26.0515 15.6658 26.0515 16.4298C26.0515 17.1939 25.4357 17.81 24.677 17.8051Z" fill="#42C0BC"/>
<path d="M13.814 31.3606C14.5579 31.3606 15.1491 31.962 15.1491 32.7063C15.1491 33.4506 14.5432 34.0422 13.8042 34.0372C13.0701 34.0323 12.4839 33.4408 12.4789 32.7014C12.4789 31.9571 13.0751 31.3606 13.814 31.3606Z" fill="#42C0BC"/>
<path d="M30.0912 28.6003C29.3572 28.6003 28.766 28.0088 28.766 27.2743C28.766 26.53 29.3621 25.9385 30.106 25.9434C30.8401 25.9434 31.4263 26.5398 31.4214 27.2793C31.4214 28.0137 30.8302 28.6053 30.0912 28.6003Z" fill="#42C0BC"/>
<path d="M28.6626 29.9903C28.6626 30.7149 28.0665 31.3064 27.3423 31.3015C26.6181 31.3015 26.0269 30.7051 26.0318 29.9804C26.0318 29.2558 26.6279 28.6643 27.3521 28.6692C28.0763 28.6692 28.6675 29.2657 28.6626 29.9903Z" fill="#42C0BC"/>
<path d="M15.1195 38.1191C15.1195 38.8437 14.5234 39.4402 13.7992 39.4352C13.0848 39.4303 12.4986 38.8388 12.4937 38.124C12.4937 37.3994 13.0898 36.803 13.814 36.8079C14.5283 36.8128 15.1146 37.4043 15.1195 38.1191Z" fill="#42C0BC"/>
<path d="M25.9431 32.7018C25.9431 33.4265 25.347 34.0081 24.6277 33.9983C23.9084 33.9884 23.3271 33.3969 23.337 32.6772C23.3468 31.9624 23.9282 31.3906 24.6425 31.3906C25.3618 31.3906 25.948 31.9822 25.9431 32.7018Z" fill="#42C0BC"/>
<path d="M21.928 36.6945C21.2137 36.6945 20.6422 36.1178 20.6422 35.3981C20.6422 34.6834 21.2235 34.1116 21.9379 34.1165C22.6424 34.1214 23.2089 34.6932 23.2139 35.4031C23.2139 36.1227 22.6424 36.6945 21.928 36.6945Z" fill="#42C0BC"/>
<path d="M28.6626 13.7235C28.6626 14.4284 28.0813 15.0002 27.3768 14.9953C26.6723 14.9904 26.1008 14.4038 26.1107 13.7038C26.1205 13.0088 26.692 12.4419 27.3866 12.4419C28.0911 12.4419 28.6675 13.0236 28.6626 13.7235Z" fill="#42C0BC"/>
<path d="M20.4945 38.1237C20.4945 38.8188 19.9181 39.3906 19.2234 39.3906C18.5239 39.3906 17.9425 38.804 17.9524 38.104C17.9622 37.4089 18.5386 36.8371 19.2333 36.8421C19.9279 36.847 20.4994 37.4237 20.4945 38.1188V38.1237Z" fill="#42C0BC"/>
<path d="M16.5138 42.0823C15.8192 42.0823 15.2625 41.5203 15.2674 40.8204C15.2674 40.1253 15.834 39.5732 16.5286 39.5782C17.2134 39.5831 17.7652 40.1401 17.7652 40.8302C17.7652 41.5253 17.2085 42.0823 16.5089 42.0823H16.5138Z" fill="#42C0BC"/>
<path d="M24.682 23.0894C23.9972 23.0894 23.4405 22.5324 23.4405 21.8472C23.4405 21.162 24.0021 20.605 24.6869 20.6099C25.3618 20.6099 25.9136 21.1669 25.9185 21.8422C25.9185 22.5274 25.3668 23.0894 24.682 23.0894Z" fill="#42C0BC"/>
<path d="M15.0409 43.5512C15.0359 44.2265 14.4743 44.7835 13.7994 44.7737C13.1245 44.7687 12.5727 44.2068 12.5776 43.5315C12.5825 42.8561 13.1442 42.2991 13.8191 42.309C14.494 42.3139 15.0458 42.8758 15.0409 43.5512Z" fill="#42C0BC"/>
<path d="M27.3768 23.3606C28.0419 23.3606 28.5838 23.8979 28.5838 24.5634C28.5838 25.2288 28.0468 25.7711 27.3817 25.7711C26.7265 25.7711 26.1895 25.2387 26.1846 24.5782C26.1797 23.9127 26.7167 23.3655 27.3768 23.3606Z" fill="#42C0BC"/>
<path d="M9.59692 32.6967C9.59692 33.3621 9.05501 33.8994 8.38993 33.8994C7.72485 33.8994 7.18786 33.3523 7.19278 32.6868C7.19278 32.0312 7.7347 31.4939 8.38993 31.4939C9.05501 31.4939 9.59692 32.0312 9.59692 32.6967Z" fill="#42C0BC"/>
<path d="M12.277 46.2523C12.277 46.9079 11.7548 47.4305 11.0947 47.4255C10.4395 47.4255 9.92217 46.8981 9.9271 46.2376C9.9271 45.5869 10.4493 45.0742 11.0996 45.0742C11.7548 45.0742 12.277 45.5918 12.277 46.2523Z" fill="#42C0BC"/>
<path d="M12.2178 40.8255C12.2227 41.4367 11.7103 41.9543 11.0994 41.9493C10.4935 41.9493 9.99098 41.4466 9.98606 40.8402C9.98113 40.229 10.4935 39.7114 11.1044 39.7163C11.7103 39.7163 12.2128 40.2191 12.2178 40.8255Z" fill="#42C0BC"/>
<path d="M33.8847 24.5633C33.8847 25.1597 33.3921 25.6477 32.796 25.6477C32.1999 25.6477 31.7122 25.1548 31.7171 24.5583C31.7171 23.9619 32.2097 23.4739 32.8058 23.4739C33.4019 23.4739 33.8897 23.9668 33.8847 24.5633Z" fill="#42C0BC"/>
<path d="M30.0962 9.94291C30.6923 9.94291 31.1603 10.4211 31.1554 11.0126C31.1554 11.609 30.6726 12.0773 30.0814 12.0675C29.4951 12.0625 29.032 11.5943 29.032 11.0077C29.032 10.4112 29.505 9.93798 30.0962 9.94291Z" fill="#42C0BC"/>
<path d="M9.40482 48.9585C9.40482 49.5155 8.95651 49.969 8.40474 49.974C7.83819 49.974 7.38495 49.5205 7.38495 48.9536C7.38495 48.3966 7.83819 47.948 8.39488 47.948C8.95158 47.948 9.40482 48.3966 9.40482 48.9585Z" fill="#42C0BC"/>
<path d="M5.69026 28.97C6.24695 28.97 6.69527 29.4235 6.69527 29.9805C6.69527 30.5474 6.2371 31.0009 5.67055 30.9959C5.11385 30.991 4.67047 30.5326 4.67539 29.9756C4.67539 29.4185 5.13356 28.97 5.69026 28.97Z" fill="#42C0BC"/>
<path d="M8.43436 28.2556C7.88751 28.2556 7.45398 27.8267 7.45398 27.2746C7.45398 26.7226 7.88259 26.2937 8.43436 26.2937C8.9812 26.2937 9.41473 26.7226 9.41473 27.2746C9.41473 27.8267 8.98612 28.2556 8.43436 28.2556Z" fill="#42C0BC"/>
<path d="M11.1439 25.5099C10.6168 25.5099 10.198 25.0958 10.1931 24.5684C10.1931 24.036 10.6168 23.6072 11.1489 23.6121C11.676 23.6121 12.0898 24.036 12.0898 24.5635C12.0898 25.0909 11.6711 25.5099 11.1439 25.5099Z" fill="#42C0BC"/>
<path d="M13.8485 22.7691C13.346 22.7691 12.9223 22.3451 12.9272 21.8424C12.9322 21.3396 13.346 20.9304 13.8436 20.9304C14.3461 20.9304 14.7697 21.3543 14.7648 21.8571C14.7599 22.3599 14.3461 22.7691 13.8485 22.7691Z" fill="#42C0BC"/>
<path d="M27.3767 18.2439C27.8743 18.2439 28.2783 18.6382 28.2783 19.1312C28.2783 19.629 27.8841 20.0333 27.3915 20.0333C26.8939 20.0333 26.4899 19.6389 26.4899 19.146C26.4899 18.6481 26.8841 18.2439 27.3767 18.2439Z" fill="#42C0BC"/>
<path d="M11.9862 35.4029C11.9862 35.886 11.5773 36.2951 11.0945 36.2902C10.6166 36.2853 10.2225 35.886 10.2176 35.4078C10.2176 34.9248 10.6265 34.5156 11.1093 34.5206C11.5872 34.5255 11.9813 34.9248 11.9862 35.4029Z" fill="#42C0BC"/>
<path d="M17.4399 19.1358C17.4399 19.6189 17.0359 20.028 16.5531 20.0231C16.0753 20.0231 15.6811 19.6238 15.6762 19.1456C15.6762 18.6626 16.0802 18.2534 16.563 18.2583C17.0409 18.2583 17.435 18.6576 17.4399 19.1358Z" fill="#42C0BC"/>
<path d="M9.24237 43.5415C9.24237 44.0048 8.8581 44.3942 8.39501 44.3942C7.93192 44.3942 7.54272 44.0098 7.54272 43.5464C7.54272 43.083 7.92699 42.6936 8.39008 42.6936C8.85318 42.6936 9.24237 43.0781 9.24237 43.5415Z" fill="#42C0BC"/>
<path d="M19.2579 15.582C19.721 15.582 20.1102 15.9665 20.1102 16.4299C20.1102 16.8932 19.721 17.2827 19.2579 17.2777C18.8047 17.2777 18.4253 16.8982 18.4155 16.4397C18.4105 15.9813 18.7948 15.587 19.2579 15.582Z" fill="#42C0BC"/>
<path d="M21.9772 14.5221C21.5437 14.5221 21.1742 14.1622 21.1644 13.7284C21.1545 13.2897 21.5339 12.9102 21.9723 12.9102C22.4059 12.9102 22.7753 13.2799 22.7753 13.7136C22.7753 14.1474 22.4108 14.5171 21.9772 14.5221Z" fill="#42C0BC"/>
<path d="M2.98548 33.4655C2.56673 33.4705 2.20709 33.1106 2.20709 32.6916C2.20709 32.2776 2.55687 31.9276 2.9707 31.9227C3.38946 31.9177 3.74909 32.2776 3.74909 32.6966C3.74909 33.1106 3.39931 33.4606 2.98548 33.4655Z" fill="#42C0BC"/>
<path d="M33.5694 8.30126C33.5645 8.72518 33.1999 9.07517 32.7812 9.06531C32.3673 9.05052 32.0225 8.69561 32.0274 8.28647C32.0323 7.86254 32.3969 7.51256 32.8156 7.52242C33.2295 7.53721 33.5743 7.89212 33.5694 8.30126Z" fill="#42C0BC"/>
<path d="M25.4505 10.9974C25.4554 11.4164 25.1007 11.7763 24.6819 11.7763C24.2681 11.7763 23.9183 11.4312 23.9134 11.0122C23.9085 10.5932 24.2632 10.2334 24.6819 10.2334C25.0957 10.2334 25.4455 10.5785 25.4505 10.9974Z" fill="#42C0BC"/>
<path d="M28.1207 8.30114C28.1207 8.70042 27.7709 9.04055 27.3719 9.03069C26.9777 9.02083 26.6526 8.68563 26.6526 8.29128C26.6526 7.892 27.0024 7.55187 27.4014 7.56173C27.7955 7.57159 28.1207 7.90679 28.1207 8.30114Z" fill="#42C0BC"/>
<path d="M6.37993 51.6746C6.37993 52.0492 6.06464 52.3647 5.69022 52.3696C5.31088 52.3696 4.98573 52.0443 4.99066 51.6647C4.99558 51.2901 5.32073 50.9746 5.69022 50.9795C6.06464 50.9795 6.37993 51.3 6.37993 51.6746Z" fill="#42C0BC"/>
<path d="M6.35044 35.413C6.35044 35.7827 6.04992 36.0736 5.68536 36.0736C5.31587 36.0736 5.02521 35.7729 5.02521 35.4081C5.02521 35.0384 5.32572 34.7476 5.69029 34.7476C6.05977 34.7476 6.35044 35.0483 6.35044 35.413Z" fill="#42C0BC"/>
<path d="M30.0862 4.94946C30.4459 4.94946 30.7218 5.22058 30.7267 5.58042C30.7267 5.94027 30.4508 6.21631 30.0912 6.21631C29.7414 6.21631 29.4655 5.9452 29.4606 5.59521C29.4556 5.23537 29.7266 4.95439 30.0862 4.94946Z" fill="#42C0BC"/>
<path d="M30.0864 21.231C30.4313 21.231 30.717 21.5119 30.7121 21.857C30.7121 22.1922 30.4362 22.4732 30.0963 22.4781C29.7514 22.4781 29.4657 22.1971 29.4706 21.8521C29.4706 21.5169 29.7465 21.2359 30.0864 21.231Z" fill="#42C0BC"/>
<path d="M36.0966 27.2892C36.0868 27.6145 35.8208 27.8709 35.4907 27.861C35.1655 27.8512 34.9143 27.585 34.9192 27.2547C34.9291 26.9294 35.1951 26.673 35.5252 26.6829C35.8503 26.6928 36.1016 26.9589 36.0966 27.2892Z" fill="#42C0BC"/>
<path d="M30.6725 16.4197C30.6725 16.7303 30.4114 17.0014 30.0961 17.0063C29.7857 17.0063 29.5148 16.7401 29.5148 16.4247C29.5148 16.119 29.7709 15.8578 30.0813 15.8479C30.3917 15.8381 30.6676 16.1042 30.6676 16.4197H30.6725Z" fill="#42C0BC"/>
<path d="M32.7565 30.5473C32.4412 30.5473 32.1949 30.286 32.1998 29.9755C32.2048 29.66 32.4659 29.4135 32.7762 29.4234C33.0817 29.4332 33.3231 29.6797 33.3231 29.9853C33.3231 30.3008 33.0669 30.5522 32.7565 30.5473Z" fill="#42C0BC"/>
<path d="M30.5887 32.6918C30.5887 32.9777 30.3523 33.2241 30.0665 33.2291C29.7759 33.234 29.5197 32.9826 29.5246 32.6918C29.5246 32.4058 29.7709 32.1643 30.0567 32.1643C30.3424 32.1643 30.5838 32.4058 30.5887 32.6918Z" fill="#42C0BC"/>
<path d="M5.68543 46.7602C5.39969 46.7602 5.17307 46.5335 5.178 46.2426C5.178 45.9567 5.40954 45.7349 5.70021 45.7398C5.98102 45.7398 6.19778 45.9666 6.19778 46.2476C6.19778 46.5384 5.97609 46.7602 5.68543 46.7602Z" fill="#42C0BC"/>
<path d="M35.5154 22.3548C35.2395 22.3548 35.008 22.1379 35.0031 21.8619C34.9981 21.576 35.2248 21.3394 35.5105 21.3443C35.7864 21.3443 36.013 21.5711 36.013 21.8471C36.013 22.1232 35.7913 22.3548 35.5154 22.3548Z" fill="#42C0BC"/>
<path d="M27.8446 35.4128C27.8397 35.679 27.6082 35.9057 27.3471 35.9008C27.0761 35.9008 26.8396 35.6543 26.8544 35.3881C26.8643 35.1219 27.1007 34.9001 27.3618 34.91C27.6279 34.9198 27.8496 35.1515 27.8446 35.4128Z" fill="#42C0BC"/>
<path d="M24.6425 38.5778C24.3962 38.5778 24.1843 38.3658 24.1843 38.1193C24.1843 37.8728 24.3962 37.6609 24.6425 37.6609C24.8888 37.6609 25.1007 37.8728 25.1007 38.1193C25.1007 38.3658 24.8888 38.5778 24.6425 38.5778Z" fill="#42C0BC"/>
<path d="M21.938 41.2441C21.7114 41.2441 21.5192 41.0568 21.5192 40.83C21.5192 40.6082 21.7015 40.4258 21.9232 40.4209C22.1498 40.4209 22.342 40.6082 22.342 40.835C22.342 41.0568 22.1597 41.2392 21.938 41.2441Z" fill="#42C0BC"/>
<path d="M19.6126 43.5413C19.6126 43.7532 19.4303 43.9356 19.2185 43.9307C19.0066 43.9307 18.8293 43.7434 18.8342 43.5314C18.8391 43.3244 19.0116 43.1568 19.2185 43.1519C19.4303 43.1519 19.6126 43.3293 19.6126 43.5413Z" fill="#42C0BC"/>
<path d="M16.5187 46.6074C16.3216 46.6074 16.1639 46.4497 16.1689 46.2476C16.1689 46.0504 16.3315 45.8926 16.5285 45.8976C16.7157 45.9025 16.8684 46.0553 16.8734 46.2476C16.8734 46.4447 16.7206 46.6074 16.5187 46.6074Z" fill="#42C0BC"/>
<path d="M32.7959 3.20914C32.6087 3.20914 32.4559 3.03661 32.4658 2.85422C32.4756 2.67676 32.6333 2.52888 32.8106 2.53381C32.9978 2.53381 33.1506 2.70634 33.1407 2.88873C33.1309 3.06618 32.9732 3.21407 32.7959 3.20914Z" fill="#42C0BC"/>
<path d="M35.5056 5.24512C35.6879 5.24512 35.8504 5.40779 35.8455 5.59017C35.8406 5.76763 35.6879 5.92044 35.5105 5.92044C35.3282 5.92044 35.1657 5.75777 35.1706 5.57538C35.1755 5.39793 35.3282 5.24512 35.5056 5.24512Z" fill="#42C0BC"/>
<path d="M14.1196 48.9687C14.1196 49.1314 13.9718 49.2743 13.8092 49.2743C13.6368 49.2743 13.489 49.1215 13.4988 48.949C13.5087 48.7863 13.6565 48.6483 13.819 48.6532C13.9816 48.6581 14.1245 48.806 14.1196 48.9687Z" fill="#42C0BC"/>
<path d="M37.9048 24.5632C37.9048 24.4006 38.0477 24.2576 38.2102 24.2527C38.3777 24.2527 38.5304 24.4006 38.5255 24.5731C38.5206 24.7358 38.3728 24.8787 38.2102 24.8738C38.0477 24.8738 37.9048 24.7259 37.9048 24.5632Z" fill="#42C0BC"/>
<path d="M0.271107 35.1318C0.418902 35.1318 0.542064 35.2501 0.542064 35.403C0.542064 35.5607 0.413975 35.6889 0.261253 35.679C0.113458 35.6741 -0.00477796 35.5508 0.000148554 35.398C0.000148554 35.2501 0.123312 35.1318 0.276034 35.1318H0.271107Z" fill="#42C0BC"/>
<path d="M11.0996 51.4038C11.2474 51.4038 11.3706 51.5221 11.3755 51.67C11.3755 51.8277 11.2524 51.9559 11.0947 51.951C10.9469 51.951 10.8287 51.8228 10.8287 51.6749C10.8287 51.527 10.9518 51.4038 11.0996 51.4038Z" fill="#42C0BC"/>
<path d="M2.97575 54.6622C2.82303 54.6622 2.69987 54.5291 2.70479 54.3763C2.70972 54.2284 2.83781 54.115 2.98068 54.115C3.1334 54.115 3.25656 54.2481 3.25164 54.4009C3.24671 54.5488 3.11862 54.6622 2.97575 54.6622Z" fill="#42C0BC"/>
<path d="M8.63138 54.4157C8.6166 54.534 8.5427 54.6178 8.39491 54.6228C8.25696 54.6228 8.15351 54.5143 8.15843 54.3812C8.15843 54.2481 8.27667 54.1446 8.41461 54.1545C8.5427 54.1643 8.6363 54.2728 8.63138 54.4206V54.4157Z" fill="#42C0BC"/>
<path d="M33.0422 13.7187C33.0274 13.8567 32.9535 13.9455 32.8107 13.9504C32.6727 13.9603 32.5643 13.8469 32.5643 13.7138C32.5643 13.5758 32.6776 13.4673 32.8107 13.4772C32.9535 13.487 33.0225 13.5758 33.0373 13.7138L33.0422 13.7187Z" fill="#42C0BC"/>
<path d="M8.63138 38.1486C8.6166 38.2669 8.5427 38.3507 8.39491 38.3557C8.25696 38.3557 8.15351 38.2472 8.15843 38.1141C8.15843 37.981 8.27667 37.8775 8.41461 37.8874C8.5427 37.8972 8.6363 38.0057 8.63138 38.1536V38.1486Z" fill="#42C0BC"/>
<path d="M14.0357 16.4345C13.9471 16.4936 13.8929 16.5528 13.8436 16.5479C13.8042 16.5479 13.7204 16.4591 13.7303 16.4345C13.7451 16.3803 13.8042 16.3211 13.8584 16.3112C13.8929 16.3014 13.9471 16.3704 14.0357 16.4345Z" fill="#42C0BC"/>
<path d="M35.5301 11.1653C35.6172 11.1653 35.6878 11.0947 35.6878 11.0076C35.6878 10.9205 35.6172 10.8499 35.5301 10.8499C35.4431 10.8499 35.3725 10.9205 35.3725 11.0076C35.3725 11.0947 35.4431 11.1653 35.5301 11.1653Z" fill="#42C0BC"/>
<path d="M64.3586 18.7466H67.0534L73.9899 37.0838H70.2704L68.9895 33.4706H61.9199L60.6095 37.0838H57.0476L64.3536 18.7466H64.3586ZM62.92 30.7447H68.0239L65.5114 23.6957H65.4867L62.92 30.7447Z" fill="#232323"/>
<path d="M93.9176 38.8434L91.272 36.2259C89.9123 36.985 88.3112 37.404 86.6115 37.404C81.217 37.404 77.1083 33.1598 77.1083 27.9199C77.1083 22.68 81.217 18.4358 86.6115 18.4358C92.0061 18.4358 96.1443 22.68 96.1443 27.9199C96.1443 30.4881 95.1492 32.8197 93.5284 34.5203L95.9128 36.8766L93.9225 38.8434H93.9176ZM91.272 32.2676C92.1883 31.1141 92.7106 29.6205 92.7106 27.9199C92.7106 24.1982 90.1438 21.2899 86.6115 21.2899C83.0792 21.2899 80.5371 24.1982 80.5371 27.9199C80.5371 31.6416 83.1039 34.5499 86.6115 34.5499C87.5032 34.5499 88.3112 34.3675 89.0748 34.0274L86.6904 31.6416L88.6807 29.6748L91.272 32.2676Z" fill="#232323"/>
<path d="M116.116 28.4673C116.116 34.2297 113.944 37.3993 108.786 37.3993C103.628 37.3993 101.583 34.2297 101.583 28.4673V18.7466H104.83V29.0145C104.83 32.7361 106.377 34.5403 108.835 34.5403C111.293 34.5403 112.865 32.7312 112.865 29.0145V18.7466H116.112V28.4673H116.116Z" fill="#232323"/>
<path d="M127.428 18.7466H130.123L137.059 37.0838H133.34L132.059 33.4706H124.989L123.679 37.0838H120.117L127.423 18.7466H127.428ZM125.989 30.7447H131.093L128.581 23.6957H128.556L125.989 30.7447Z" fill="#232323"/>
<path d="M141.641 18.7466H146.277C148.03 18.7466 149.863 19.0325 151.198 19.9001C152.587 20.817 153.267 22.207 153.267 23.8535C153.267 25.4999 152.484 26.7618 150.755 27.4667C152.824 28.1223 154.026 29.6948 154.026 31.7355C154.026 33.7763 152.794 35.5361 150.858 36.3445C149.469 36.9212 147.691 37.079 146.04 37.079H141.641V18.7417V18.7466ZM144.887 26.397H146.222C148.631 26.397 150.021 25.6379 150.021 24.0112C150.021 23.0155 149.681 22.4634 149.129 22.0986C148.346 21.5761 147.163 21.5219 145.828 21.5219H144.887V26.397ZM144.887 34.3087H145.986C147.267 34.3087 148.474 34.2544 149.366 33.8354C150.124 33.4707 150.597 32.8397 150.597 31.7651C150.597 30.1138 149.469 29.0392 147.351 29.0392H144.887V34.3037V34.3087Z" fill="#232323"/>
<path d="M164.973 18.7466H167.667L174.604 37.0838H170.885L169.604 33.4706H162.534L161.224 37.0838H157.662L164.968 18.7466H164.973ZM163.534 30.7447H168.638L166.125 23.6957H166.101L163.534 30.7447Z" fill="#232323"/>
<path d="M183.822 21.5269V37.089H180.575V21.5269H176.126V18.7517H188.275V21.5269H183.826H183.822Z" fill="#232323"/>
<path d="M199.557 21.5269V37.089H196.31V21.5269H191.862V18.7517H204.01V21.5269H199.562H199.557Z" fill="#232323"/>
<path d="M208.484 37.089V18.7517H219.923V21.5269H211.73V26.269H219.923V29.0442H211.73V34.3088H219.923V37.084H208.484V37.089Z" fill="#232323"/>
<path d="M231.21 18.7466C234.116 18.7466 237.727 20.2402 237.727 24.1442C237.727 27.1068 235.683 28.6743 233.54 29.2807L239.22 37.0888H235.19L229.953 29.5961H228.801V37.0888H225.554V18.7515H231.21V18.7466ZM230.609 26.816C232.727 26.816 234.299 26.0568 234.299 24.2231C234.299 22.5964 233.018 21.5267 231.131 21.5267H228.801V26.8209H230.609V26.816Z" fill="#232323"/>
<path d="M246.733 37.0888V29.2807L240.92 18.7466H244.925L248.487 25.7956H248.541L252.231 18.7466H256L249.98 29.4088V37.0838H246.733V37.0888Z" fill="#232323"/>
</svg>
